<svg xmlns="http://www.w3.org/2000/svg" viewBox="0 0 960 600" font-family="Inter, system-ui, sans-serif">
  <rect width="960" height="600" fill="#ffffff"/>
  <rect width="960" height="48" fill="#FBE9F0"/>
  <circle cx="30" cy="24" r="6" fill="#FF6058"/>
  <circle cx="52" cy="24" r="6" fill="#FFBD2E"/>
  <circle cx="74" cy="24" r="6" fill="#28C840"/>
  <rect x="112" y="14" width="736" height="20" rx="10" fill="#ffffff"/>
  <circle cx="62" cy="94" r="15" fill="#ED3176"/>
  <rect x="88" y="86" width="96" height="15" rx="7" fill="#1C1A3A"/>
  <rect x="716" y="88" width="54" height="12" rx="6" fill="#C9C7D6"/>
  <rect x="784" y="80" width="116" height="28" rx="14" fill="#ED3176"/>
  <rect x="60" y="150" width="540" height="244" rx="20" fill="#FBDCE8"/>
  <rect x="96" y="190" width="320" height="28" rx="8" fill="#1C1A3A"/>
  <rect x="96" y="232" width="260" height="28" rx="8" fill="#1C1A3A"/>
  <rect x="96" y="290" width="380" height="13" rx="6" fill="#C9C7D6"/>
  <rect x="96" y="332" width="150" height="40" rx="20" fill="#ED3176"/>
  <rect x="628" y="150" width="272" height="116" rx="16" fill="#ED3176"/>
  <rect x="628" y="278" width="272" height="116" rx="16" fill="#F5F4F8"/>
  <circle cx="688" cy="336" r="24" fill="#ED3176"/>
  <rect x="730" y="324" width="140" height="11" rx="5" fill="#D7D5E0"/>
  <rect x="730" y="344" width="100" height="11" rx="5" fill="#E4E3EC"/>
  <rect x="60" y="430" width="840" height="14" rx="7" fill="#1C1A3A"/>
  <rect x="60" y="468" width="390" height="94" rx="14" fill="#F5F4F8"/>
  <rect x="490" y="468" width="410" height="94" rx="14" fill="#F5F4F8"/>
  <rect x="84" y="490" width="40" height="40" rx="11" fill="#ED3176"/>
  <rect x="514" y="490" width="40" height="40" rx="11" fill="#ED3176"/>
  <rect x="140" y="496" width="200" height="11" rx="5" fill="#D7D5E0"/>
  <rect x="570" y="496" width="200" height="11" rx="5" fill="#D7D5E0"/>
  <rect x="140" y="518" width="150" height="11" rx="5" fill="#E4E3EC"/>
  <rect x="570" y="518" width="150" height="11" rx="5" fill="#E4E3EC"/>
  <text x="900" y="588" text-anchor="end" font-size="13" fill="#D7D5E0">Placeholder layout 04</text>
</svg>
